<svg width="78" height="76" viewBox="0 0 78 76" fill="none" xmlns="http://www.w3.org/2000/svg">
<g clip-path="url(#clip0_158_4972)">
<path d="M10.0749 55.1865C14.0942 57.3308 15.1955 61.6397 17.7965 64.7911C20.0073 67.4715 23.4576 67.6339 26.7901 67.2725C27.5135 67.1953 28.2328 67.0694 29.2285 66.9313C29.2285 69.5264 29.3138 71.9468 29.2 74.3591C29.1309 75.7968 27.7898 76.4709 26.0911 75.6424C22.4335 73.8434 18.5849 72.1742 15.3215 69.77C7.08382 63.7108 2.14202 55.3652 0.553 45.3058C-1.41397 32.8544 1.95101 21.8121 10.4935 12.4594C16.2704 6.01556 24.1222 1.79572 32.6869 0.531821C45.1511 -1.39722 56.197 1.9451 65.5483 10.4897C72.0953 16.4799 76.0658 23.9645 77.4842 32.6675C78.9578 41.6699 77.2229 50.9035 72.5819 58.7585C67.9409 66.6135 60.6882 72.5917 52.0884 75.6506C49.8044 76.4628 48.7925 75.6912 48.7762 73.2383C48.7762 70.4645 48.7762 67.6908 48.7762 64.917C48.7762 60.1655 48.7762 60.1655 46.8011 56.4292C49.3695 55.6657 52.0599 55.0972 54.5592 54.0738C60.5821 51.6046 63.118 46.6297 63.8048 40.469C64.3534 35.555 63.8048 30.9132 60.5333 26.8926C60.2488 26.5434 60.448 25.8002 60.4276 25.2397C60.326 22.6447 60.3017 20.0455 60.0903 17.4586C59.9969 16.2809 59.1434 15.6189 57.9242 16.0819C55.2989 17.0809 52.7223 18.1978 50.1011 19.2049C49.3248 19.5014 48.3983 19.9237 47.6627 19.7491C42.0078 18.3663 36.1026 18.3663 30.4477 19.7491C29.7202 19.9278 28.7895 19.477 28.0093 19.1765C25.3961 18.1693 22.8236 17.0566 20.1983 16.0778C19.1295 15.6717 18.272 16.1266 18.1663 17.349C17.9794 19.8588 17.894 22.3807 17.7599 24.8945C17.7152 25.6621 17.9103 26.6571 17.5079 27.1607C14.72 30.641 13.8869 34.6372 14.1998 38.9379C14.7729 46.8368 17.8859 52.5224 26.1642 55.0809C27.8711 55.6089 29.6633 55.8566 31.2848 56.2018C30.7159 57.7369 30.5411 59.739 29.4479 60.7097C28.2653 61.7574 26.2333 62.2326 24.5711 62.2691C21.8279 62.326 19.7878 60.7097 18.337 58.3948C17.0853 56.4008 15.5694 54.6829 13.1066 54.2687C12.2573 54.1266 11.3551 54.3215 10.4772 54.3621C10.3391 54.6545 10.205 54.9144 10.0749 55.1865Z" fill="white"/>
</g>
<defs>
<clipPath id="clip0_158_4972">
<rect width="78" height="76" fill="white"/>
</clipPath>
</defs>
</svg>
