<svg id="Слой_1" data-name="Слой 1" xmlns="http://www.w3.org/2000/svg" viewBox="0 0 1080 1080"><defs><style>.cls-1{fill:#fff;}</style></defs><rect class="cls-1" x="317.13" y="392.65" width="18.04" height="108.26"/><rect class="cls-1" x="282.02" y="374.6" width="90.21" height="18.04"/><rect class="cls-1" x="509.3" y="482.86" width="90.21" height="18.04"/><rect class="cls-1" x="240.55" y="374.6" width="18.04" height="126.3"/><rect class="cls-1" x="431.74" y="356.56" width="18.04" height="54.13" transform="translate(57.14 824.39) rotate(-90)"/><rect class="cls-1" x="395.66" y="392.65" width="18.04" height="36.09"/><rect class="cls-1" x="431.74" y="464.82" width="18.04" height="54.13" transform="translate(-51.12 932.65) rotate(-90)"/><rect class="cls-1" x="431.74" y="410.69" width="18.04" height="54.13" transform="translate(3.01 878.52) rotate(-90)"/><rect class="cls-1" x="467.83" y="446.78" width="18.04" height="36.09"/><rect class="cls-1" x="467.83" y="392.65" width="18.04" height="18.04"/><rect class="cls-1" x="395.66" y="464.82" width="18.04" height="18.04"/><rect class="cls-1" x="276.63" y="570.2" width="18.04" height="54.13" transform="translate(-311.61 882.92) rotate(-90)"/><rect class="cls-1" x="240.55" y="588.24" width="18.04" height="126.3"/><rect class="cls-1" x="276.63" y="678.45" width="18.04" height="54.13" transform="translate(-419.86 991.18) rotate(-90)"/><rect class="cls-1" x="276.63" y="624.33" width="18.04" height="54.13" transform="translate(-365.73 937.05) rotate(-90)"/><rect class="cls-1" x="312.72" y="660.41" width="18.04" height="36.09"/><rect class="cls-1" x="312.72" y="606.28" width="18.04" height="36.09"/><rect class="cls-1" x="652.66" y="606.28" width="18.04" height="108.26"/><rect class="cls-1" x="617.55" y="588.24" width="90.21" height="18.04"/><rect class="cls-1" x="776.3" y="669.42" width="18.04" height="72.17" transform="translate(79.81 1490.83) rotate(-90)"/><rect class="cls-1" x="776.31" y="633.35" width="108.24" height="18.04" transform="translate(188.06 1472.8) rotate(-90)"/><rect class="cls-1" x="686.1" y="633.35" width="108.24" height="18.04" transform="translate(97.85 1382.58) rotate(-90)"/><rect class="cls-1" x="540" y="570.2" width="18.04" height="54.13" transform="translate(-48.24 1146.28) rotate(-90)"/><rect class="cls-1" x="503.91" y="606.28" width="18.04" height="36.09"/><rect class="cls-1" x="540" y="678.45" width="18.04" height="54.13" transform="translate(-156.5 1254.54) rotate(-90)"/><rect class="cls-1" x="540" y="624.33" width="18.04" height="54.13" transform="translate(-102.37 1200.41) rotate(-90)"/><rect class="cls-1" x="576.09" y="660.41" width="18.04" height="36.09"/><rect class="cls-1" x="576.09" y="606.28" width="18.04" height="18.04"/><rect class="cls-1" x="503.91" y="678.45" width="18.04" height="18.04"/><rect class="cls-1" x="408.32" y="642.37" width="18.04" height="18.04"/><rect class="cls-1" x="372.23" y="606.28" width="18.04" height="18.04"/><rect class="cls-1" x="444.4" y="606.28" width="18.04" height="18.04"/><rect class="cls-1" x="390.27" y="624.33" width="18.04" height="18.04" transform="translate(-234.05 1032.64) rotate(-90)"/><rect class="cls-1" x="426.36" y="624.33" width="18.04" height="18.04" transform="translate(-197.97 1068.73) rotate(-90)"/><rect class="cls-1" x="408.32" y="642.37" width="126.3" height="18.04" transform="translate(-179.92 1122.86) rotate(-90)"/><rect class="cls-1" x="300.06" y="642.37" width="126.3" height="18.04" transform="translate(-288.18 1014.6) rotate(-90)"/><rect class="cls-1" x="578.34" y="527.32" width="658.81" height="25.36" transform="translate(367.75 1447.75) rotate(-90)"/><rect class="cls-1" x="-157.16" y="527.32" width="658.81" height="25.36" transform="translate(-367.75 712.25) rotate(-90)"/><rect class="cls-1" x="210.29" y="894.75" width="659.41" height="25.34" transform="translate(1080 1814.83) rotate(-180)"/><rect class="cls-1" x="210.29" y="159.92" width="659.41" height="25.34" transform="translate(1080 345.17) rotate(-180)"/><rect class="cls-1" x="869.72" y="185.24" width="25.34" height="25.36" transform="translate(684.46 1080.31) rotate(-90)"/><rect class="cls-1" x="869.72" y="869.4" width="25.34" height="25.36" transform="translate(0.31 1764.46) rotate(-90)"/><rect class="cls-1" x="184.94" y="869.4" width="25.34" height="25.36" transform="translate(-684.46 1079.69) rotate(-90)"/><rect class="cls-1" x="184.94" y="185.24" width="25.34" height="25.36" transform="translate(-0.31 395.54) rotate(-90)"/></svg>