<svg width="58" height="58" viewBox="0 0 58 58" fill="none" xmlns="http://www.w3.org/2000/svg">
<g clip-path="url(#clip0_149_2362)">
<path d="M58.0017 55.1761C57.6447 55.7814 57.3618 56.4518 56.911 56.977C56.3059 57.6898 55.4421 58.0061 54.4906 58.0061C45.9799 58.0061 37.4693 58.0061 28.9586 58.0061C26.9814 58.0061 25.452 56.42 25.4172 54.3543C25.3991 53.2223 25.4172 52.0842 25.4172 50.9568C25.4172 43.7259 25.4172 36.495 25.4172 29.2641C25.4172 27.4359 26.3915 26.0482 28.0116 25.579C28.373 25.4736 28.7471 25.4181 29.1235 25.4141C33.8412 25.404 38.5589 25.404 43.2767 25.4141C43.4452 25.4116 43.6133 25.433 43.7759 25.4776C44.1873 25.5987 44.4687 25.9165 44.381 26.3115C44.3129 26.6142 44.027 26.8941 43.7653 27.0833C43.5959 27.2059 43.2948 27.1666 43.0513 27.1666C38.4843 27.1666 33.9173 27.1999 29.3519 27.1514C27.9904 27.1363 27.1539 27.9898 27.1584 29.3322C27.1932 37.6013 27.1751 45.8703 27.1766 54.1379C27.1766 55.6134 27.8845 56.3141 29.367 56.3141H54.0988C55.5556 56.3141 56.3029 55.5741 56.3029 54.1273C56.3029 45.8542 56.3029 37.5856 56.3029 29.3216C56.3029 27.8824 55.5889 27.1726 54.1472 27.1711C52.0294 27.1711 49.9156 27.1711 47.8058 27.1711C47.6742 27.1711 47.5426 27.1711 47.4095 27.1711C46.6924 27.1514 46.3279 26.8563 46.3263 26.2933C46.3248 25.7304 46.6955 25.4171 47.4034 25.4156C49.612 25.4095 51.8201 25.4095 54.0277 25.4156C54.1593 25.4156 54.2924 25.4156 54.4241 25.4156C56.1062 25.4716 57.3996 26.4749 57.8882 28.0837C57.9198 28.1701 57.9577 28.2541 58.0017 28.3349V55.1761Z" fill="white"/>
<path d="M29.6878 0C30.2354 0.281487 30.8375 0.490339 31.3171 0.858089C32.2247 1.55727 32.6059 2.56214 32.6059 3.69263C32.613 9.92167 32.613 16.1517 32.6059 22.3828C32.6059 23.0804 32.2852 23.483 31.7497 23.4966C31.2142 23.5102 30.8526 23.1001 30.8526 22.3661C30.8526 16.2491 30.8526 10.1325 30.8526 4.0165C30.8701 3.67782 30.8421 3.33832 30.7694 3.00708C30.5471 2.19894 29.8058 1.70407 28.8634 1.70104C26.8635 1.70104 24.8622 1.70104 22.8623 1.70104H4.01359C2.43278 1.70104 1.72331 2.40476 1.72331 3.9711V28.6073C1.72331 30.163 2.40555 30.844 3.96368 30.844H22.1377C22.345 30.8366 22.5524 30.8468 22.758 30.8743C23.2269 30.9545 23.5053 31.2436 23.5068 31.7248C23.5083 32.2061 23.2148 32.4815 22.7504 32.5799C22.5821 32.6037 22.4118 32.6108 22.2421 32.6011C16.1276 32.6011 10.0131 32.5814 3.90014 32.6117C1.3663 32.6238 -0.0193747 30.6609 -0.00576 28.7178C0.0547496 20.4668 0.0199586 12.222 0.0199586 3.96655C0.0199586 1.87356 0.803558 0.768796 2.77617 0.0786983C2.80643 0.0681047 2.82609 0.0272407 2.8503 0H29.6878Z" fill="white"/>
<path d="M17.4347 20.143C18.8668 21.2407 20.3009 22.3369 21.737 23.4315C21.8262 23.4996 21.9306 23.5466 22.0244 23.6086C22.5947 23.9809 22.7611 24.4803 22.4676 24.9298C22.1741 25.3793 21.6523 25.464 21.1288 25.072C19.6539 23.9658 18.2093 22.8171 16.7555 21.6821C16.6042 21.5671 16.4832 21.4263 16.3486 21.2992C15.4182 22.0892 14.5257 22.8928 13.5848 23.6359C12.9056 24.1701 12.1719 24.6392 11.4428 25.1069C10.9042 25.4534 10.399 25.3444 10.1206 24.8768C9.85892 24.4334 10.0284 24.0293 10.5397 23.6404C11.945 22.5674 13.3337 21.4702 14.7224 20.376C14.8369 20.2763 14.9422 20.1664 15.037 20.0476C14.0598 18.5343 13.0992 17.0724 12.1734 15.5908C11.8779 15.0866 11.6152 14.5639 11.3868 14.0259C11.1327 13.472 11.2854 13.0135 11.7635 12.785C12.2415 12.5565 12.6348 12.7668 12.9555 13.3071C13.907 14.9067 14.8782 16.4943 15.8494 18.0818C15.9886 18.2803 16.1402 18.4698 16.3032 18.6493C18.2305 16.3249 19.6968 13.6539 20.6236 10.7798H19.955C16.1227 10.7798 12.2929 10.7798 8.46569 10.7798C8.22406 10.7968 7.98151 10.7638 7.75319 10.6829C7.57367 10.6115 7.42745 10.4754 7.34342 10.3014C7.25939 10.1274 7.24367 9.92814 7.29937 9.74309C7.3385 9.54543 7.44785 9.36864 7.60719 9.24539C7.76654 9.12214 7.9651 9.06078 8.16617 9.07267C9.16609 9.07267 10.166 9.07267 11.1659 9.07267H15.4349C15.4349 8.75335 15.4213 8.46732 15.4349 8.16465C15.4651 7.61378 15.8297 7.25662 16.3214 7.25662C16.7903 7.26722 17.1186 7.60924 17.1534 8.14649C17.17 8.42646 17.1534 8.70644 17.1534 9.03786C17.403 9.04846 17.6072 9.0651 17.8023 9.0651C19.9716 9.0651 22.1424 9.0651 24.3071 9.0651C24.9636 9.0651 25.3842 9.46161 25.3116 10.0064C25.248 10.4786 24.9712 10.7631 24.4796 10.7631C23.9138 10.7737 23.3465 10.7465 22.7838 10.7828C22.6921 10.7932 22.6042 10.8249 22.527 10.8753C22.4497 10.9258 22.3854 10.9936 22.339 11.0734C21.3421 14.3256 19.7008 17.2252 17.5542 19.8509C17.5352 19.8835 17.521 19.9187 17.5119 19.9553L17.4347 20.143Z" fill="white"/>
<path d="M41.7455 32.6752C42.3506 32.7191 42.7393 33.0369 42.9557 33.615C43.9979 36.3996 45.0553 39.1782 46.1052 41.9598C47.037 44.4235 47.9764 46.8843 48.8826 49.3586C48.997 49.6656 48.997 50.0036 48.8826 50.3106C48.7827 50.5209 48.3803 50.751 48.1655 50.7071C48.0013 50.669 47.8468 50.5975 47.7114 50.4969C47.5761 50.3964 47.4629 50.2691 47.3789 50.1229C46.9493 49.1634 46.5983 48.1676 46.2428 47.1764C46.1309 46.8661 45.9811 46.7435 45.6377 46.7466C43.0328 46.7597 40.4284 46.7597 37.8244 46.7466C37.4735 46.7466 37.3313 46.8797 37.2193 47.1885C36.8805 48.1268 36.5174 49.0545 36.1604 49.9852C35.9199 50.6072 35.4903 50.8705 35.0153 50.7071C34.4888 50.5255 34.3043 50.0397 34.5494 49.395C36.5482 44.1375 38.5475 38.8801 40.5474 33.6226C40.7576 33.0475 41.1313 32.7206 41.7455 32.6752ZM38.0695 44.9668H45.3912L41.747 35.3024C40.4944 38.5925 39.2873 41.7645 38.0695 44.9668Z" fill="white"/>
<path d="M19.8749 48.0254H17.2306C15.3141 48.0246 13.4762 47.2633 12.1201 45.9086C10.7639 44.5538 10.0003 42.7163 9.99667 40.799C9.99667 39.0253 9.96944 37.2502 10.0194 35.478C10.0398 35.3018 10.0981 35.1321 10.1903 34.9806C10.2824 34.8291 10.4063 34.6993 10.5534 34.6002C10.7621 34.4822 11.2311 34.6078 11.4519 34.7879C11.6365 34.9392 11.6955 35.3221 11.7 35.6051C11.7212 37.2698 11.7 38.9255 11.7136 40.5871C11.7363 43.4035 13.42 45.6373 16.0749 46.1473C17.2972 46.3818 18.5815 46.2986 19.8371 46.3607L19.9036 46.1927C19.471 45.8612 18.996 45.5661 18.6208 45.1802C18.3984 44.9547 18.1867 44.5749 18.2048 44.2798C18.2456 43.6744 18.9914 43.3717 19.5088 43.738C20.7634 44.64 21.9993 45.5682 23.2165 46.5226C23.3158 46.5979 23.396 46.6954 23.451 46.8073C23.5059 46.9191 23.534 47.0423 23.533 47.1669C23.5319 47.2915 23.5018 47.4142 23.4451 47.5251C23.3883 47.6361 23.3064 47.7322 23.2059 47.8059C21.9867 48.7563 20.7513 49.6855 19.4997 50.5936C19.412 50.6596 19.3118 50.7071 19.2051 50.733C19.0985 50.7589 18.9877 50.7628 18.8795 50.7444C18.7713 50.726 18.668 50.6856 18.5759 50.6259C18.4838 50.5661 18.4049 50.4882 18.344 50.3968C18.2733 50.313 18.2205 50.2156 18.1891 50.1105C18.1577 50.0055 18.1482 49.895 18.1612 49.7862C18.1743 49.6773 18.2096 49.5722 18.265 49.4776C18.3204 49.383 18.3946 49.3007 18.4831 49.2361C18.937 48.8486 19.4347 48.5021 19.9142 48.1389L19.8749 48.0254Z" fill="white"/>
<path d="M38.159 9.97464C39.0409 9.97464 39.9213 9.97464 40.8032 9.97464C42.7197 9.97544 44.5575 10.737 45.9132 12.0921C47.2689 13.4473 48.0317 15.2852 48.0341 17.2025C48.0402 18.9762 48.0402 20.7498 48.0341 22.5235C48.0341 23.2802 47.3958 23.7145 46.7831 23.4058C46.3928 23.2091 46.3187 22.8519 46.3202 22.4509C46.3202 20.771 46.3293 19.0927 46.3202 17.4129C46.3111 15.4107 45.5638 13.7445 43.859 12.6624C43.1279 12.2074 42.3095 11.9109 41.4567 11.7922C40.3887 11.6409 39.2844 11.7559 38.0637 11.7559C38.5613 12.1388 39.0318 12.4308 39.41 12.8152C39.6339 13.0422 39.8472 13.4206 39.8275 13.7233C39.7897 14.3286 39.0394 14.6313 38.5266 14.2696C37.271 13.3616 36.0351 12.4334 34.8188 11.485C34.7187 11.4106 34.6374 11.3139 34.5813 11.2025C34.5253 11.091 34.4961 10.968 34.4961 10.8433C34.4961 10.7186 34.5253 10.5956 34.5813 10.4842C34.6374 10.3727 34.7187 10.276 34.8188 10.2016C36.0381 9.25125 37.2735 8.32204 38.525 7.41401C38.6124 7.34788 38.7123 7.30022 38.8187 7.27395C38.9251 7.24767 39.0357 7.24332 39.1438 7.26115C39.2519 7.27899 39.3553 7.31864 39.4476 7.3777C39.5399 7.43676 39.6192 7.51399 39.6808 7.60469C39.7516 7.68832 39.8046 7.7856 39.8364 7.89051C39.8682 7.99542 39.8782 8.10574 39.8657 8.21466C39.8533 8.32358 39.8186 8.42879 39.7639 8.52378C39.7092 8.61877 39.6356 8.70154 39.5477 8.76697C39.0938 9.15742 38.5977 9.50398 38.1211 9.87021L38.159 9.97464Z" fill="white"/>
</g>
<defs>
<clipPath id="clip0_149_2362">
<rect width="58" height="58" fill="white"/>
</clipPath>
</defs>
</svg>
