<svg width="445" height="448" viewBox="0 0 445 448" fill="#1E59A5" xmlns="http://www.w3.org/2000/svg">
<g clip-path="url(#clip0_288_289)" filter="url(#filter0_d_288_289)">
<path d="M18.505 425.058V410.682H4.2408C4.16627 409.244 4.0688 408.222 4.0688 407.217C4.0688 282.421 4.04587 157.622 4 32.8179C4 29.9715 4.81985 29.1632 7.54885 29.3537C11.0461 29.5789 14.572 29.4114 18.3789 29.4114V14.9195C22.5412 14.9195 26.4054 14.804 30.2867 14.9657C32.4137 15.0523 33.2107 14.3883 33.1189 12.2232C32.9813 8.95532 33.1189 5.68165 33.0559 2.40797C33.0157 0.675872 33.7324 -0.00541253 35.4351 0.0350032C38.2043 0.104287 40.9734 0.0350032 43.7483 0.0350032H407.233C408.001 0.0350032 408.77 0.0754189 409.527 0.0350032C411.35 -0.0689229 412.084 0.710559 412.032 2.59855C411.934 6.53619 412.003 10.4796 412.003 14.8214H426.267V29.2555H440.428V410.474H426.503V424.908H412.003C412.003 428.834 412.003 432.362 412.003 435.878C412.003 439.92 412.003 439.92 407.852 439.92C404.03 439.92 400.208 439.92 396.386 439.92H46.0874C42.8367 439.92 39.5802 439.816 36.341 439.977C33.9273 440.093 32.8437 439.4 33.0157 436.756C33.2221 433.69 33.0157 430.595 33.0788 427.518C33.1304 425.682 32.5055 424.954 30.6078 425.023C26.7149 425.174 22.8106 425.058 18.505 425.058ZM425.367 409.827V30.0062H411.069V15.8838H33.4744V30.2313H19.3936V409.873H33.6464V424.059H411.269V409.827H425.367Z" fill="#1E59A5"/>
<path d="M92.7846 279.561V289.134C95.485 289.134 98.1165 289.198 100.748 289.134C102.359 289.082 102.955 289.711 102.944 291.322C102.887 297.096 102.887 302.87 102.944 308.643C102.944 310.306 102.204 310.832 100.651 310.797C98.0936 310.745 95.5365 310.797 92.5897 310.797C92.5897 313.765 92.7273 316.432 92.498 319.071C92.4349 319.833 91.3513 321.114 90.6805 321.12C77.6031 321.224 64.5314 321.172 51.454 321.12C51.2043 321.062 50.9633 320.971 50.7373 320.849V247.708H92.5495V257.933C95.4161 257.933 97.9732 258.002 100.513 257.933C102.176 257.875 102.955 258.395 102.932 260.202C102.869 265.976 102.978 271.75 102.818 277.523C102.818 278.233 101.608 279.434 100.874 279.504C98.3344 279.706 95.7429 279.561 92.7846 279.561ZM91.6953 289.954C82.0119 289.954 72.6611 289.989 63.316 289.954C61.4183 289.954 61.4297 291.109 61.424 292.408C61.424 296.83 61.3896 301.253 61.424 305.687C61.424 307.084 61.5387 308.476 61.596 309.729H91.7125L91.6953 289.954ZM91.6953 258.972H61.6992V278.528H91.6953V258.972Z" fill="#1E59A5"/>
<path d="M177.991 269.302H167.877V279.434H157.483V289.735H146.59C146.59 287.032 146.544 284.463 146.59 281.894C146.63 280.214 146.057 279.365 144.262 279.55C143.308 279.605 142.35 279.605 141.396 279.55C135.542 279.475 136.379 280.289 136.276 274.261C136.247 272.656 136.276 271.051 136.276 269.302H126.616V320.889H115.935V247.708H126.375V257.858H136.694V268.28H147.037V278.528H156.91V268.337C158.911 268.337 160.59 268.372 162.265 268.337C167.574 268.21 167.178 269.452 167.218 263.205C167.218 261.588 167.218 259.971 167.218 258.054H177.693V247.806H188.5V320.953H177.991V269.302Z" fill="#1E59A5"/>
<path d="M342.546 309.775H383.252V247.564C386.801 247.564 389.851 247.471 392.878 247.644C393.497 247.679 394.214 248.655 394.598 249.376C394.873 249.908 394.672 250.693 394.672 251.368C394.672 269.844 394.672 288.32 394.672 306.796C394.672 310.756 394.672 310.756 390.705 310.774C388.887 310.774 387.07 310.774 385.258 310.808C384.977 310.808 384.685 310.895 384.031 310.999V321.005H342.093V310.739H335.844C331.67 310.739 331.636 310.739 331.636 306.449C331.636 289.232 331.636 272.011 331.636 254.786C331.636 253.152 331.664 251.518 331.636 249.885C331.607 248.251 332.243 247.448 334.009 247.517C336.761 247.627 339.513 247.517 342.557 247.517L342.546 309.775Z" fill="#1E59A5"/>
<path d="M243.532 321.131C233.172 321.131 223.432 321.131 213.719 321.131C212.177 321.131 211.719 320.456 211.742 319.041C211.787 316.374 211.742 313.706 211.742 310.681C208.841 310.681 206.289 310.623 203.715 310.681C202.081 310.733 201.21 310.277 201.296 308.423C201.405 306.022 201.21 303.602 201.405 301.212C201.51 300.821 201.711 300.462 201.991 300.171C202.271 299.879 202.619 299.663 203.004 299.544C206.026 299.376 209.064 299.463 212.395 299.463V309.659H242.489V290.029C241.417 289.977 240.402 289.89 239.387 289.89C231.171 289.89 222.95 289.809 214.734 289.93C212.332 289.965 211.506 289.145 211.673 286.778C211.839 284.411 211.707 282.199 211.707 279.486C208.898 279.486 206.352 279.417 203.813 279.486C202.018 279.549 201.244 278.966 201.278 277.026C201.382 271.351 201.359 265.669 201.278 259.994C201.278 258.36 201.852 257.777 203.457 257.829C206.026 257.915 208.617 257.829 211.696 257.829C211.696 254.942 211.736 252.217 211.696 249.474C211.696 248.025 212.189 247.401 213.697 247.407C223.248 247.453 232.805 247.407 242.363 247.459C242.726 247.533 243.079 247.653 243.412 247.817V257.771H253.732C253.732 261.305 253.806 264.538 253.651 267.759C253.651 268.221 252.505 268.955 251.88 268.995C249.586 269.151 247.293 268.995 245 269.087C243.28 269.145 242.586 268.447 242.638 266.703C242.724 264.139 242.638 261.564 242.638 258.839H212.71V278.614H226.47C230.77 278.614 235.07 278.614 239.37 278.614C244.157 278.614 243.383 278.366 243.435 282.852C243.435 284.763 243.435 286.674 243.435 288.897H253.754V293.955C253.754 298.475 253.634 303.002 253.789 307.517C253.869 309.826 253.244 310.871 250.779 310.664C248.486 310.479 246.192 310.623 243.503 310.623L243.532 321.131Z" fill="#1E59A5"/>
<path d="M149.715 197.35V187.246H139.602V176.53H150.449V186.426C151.446 186.518 152.26 186.657 153.075 186.657C161.199 186.657 169.322 186.57 177.441 186.715C180.101 186.761 180.84 185.883 180.749 183.251C180.548 177.777 180.686 172.281 180.686 166.455H149.812V156.132H139.647V134.544H149.744C149.744 131.455 149.789 128.77 149.744 126.12C149.709 124.648 150.277 124.047 151.75 124.047C161.021 124.076 170.291 124.013 179.556 124.146C180.221 124.146 181.362 125.427 181.437 126.195C181.672 128.764 181.523 131.391 181.523 134.451C184.143 134.451 186.591 134.55 189.022 134.423C191.069 134.313 191.888 134.96 191.888 137.165C192.009 145.727 192.083 145.733 183.569 145.612C182.738 145.612 181.901 145.497 180.703 145.41V135.416H150.799V155.081C151.75 155.127 152.765 155.214 153.774 155.219C162.087 155.219 170.4 155.277 178.713 155.219C180.789 155.219 181.7 155.831 181.546 158.008C181.408 159.925 181.546 161.859 181.477 163.782C181.42 165.26 182.05 165.872 183.478 165.86C185.581 165.802 187.686 165.854 189.784 166.016C190.489 166.091 191.711 166.859 191.716 167.327C191.848 173.839 191.802 180.352 191.802 187.159H181.563V197.361L149.715 197.35Z" fill="#1E59A5"/>
<path d="M94.2976 135.22C88.2376 135.22 82.7107 135.121 77.1954 135.266C74.9021 135.329 74.0421 134.688 74.0479 132.229C74.0479 124.053 73.9905 124.053 82.1088 124.053H126.214V135.121H105.311V197.362H94.2976V135.22Z" fill="#1E59A5"/>
<path d="M286.761 321.132V258.776C281.028 258.776 275.524 258.666 270.026 258.828C267.509 258.897 266.334 258.32 266.62 255.508C266.867 253.043 266.672 250.526 266.672 247.771H319.073C319.073 250.976 319.205 254.123 318.959 257.246C318.919 257.823 317.382 258.684 316.516 258.707C311.466 258.845 306.403 258.776 301.346 258.776H297.866V262.431C297.866 280.907 297.82 299.336 297.912 317.795C297.912 320.364 297.339 321.467 294.581 321.195C292.139 320.953 289.656 321.132 286.761 321.132Z" fill="#1E59A5"/>
<path d="M50.743 124.088C53.8791 124.088 56.7342 123.99 59.5722 124.163C60.2028 124.197 60.9023 125.11 61.3265 125.774C61.5903 126.189 61.4125 126.928 61.4125 127.506C61.4125 149.811 61.4125 172.119 61.4125 194.428C61.4125 195.37 61.3093 196.316 61.2405 197.437H50.7373L50.743 124.088Z" fill="#1E59A5"/>
<path d="M257.081 197.448H204.421C204.421 194.302 204.272 191.247 204.547 188.21C204.605 187.633 206.267 186.726 207.219 186.709C214.758 186.588 222.297 186.64 229.836 186.64C237.863 186.64 245.889 186.732 253.882 186.576C256.45 186.524 257.281 187.408 257.115 189.885C256.949 192.362 257.081 194.844 257.081 197.448Z" fill="#1E59A5"/>
</g>
<defs>
<filter id="filter0_d_288_289" x="0" y="0" width="448" height="448" filterUnits="userSpaceOnUse" color-interpolation-filters="sRGB">
<feFlood flood-opacity="0" result="BackgroundImageFix"/>
<feColorMatrix in="SourceAlpha" type="matrix" values="0 0 0 0 0 0 0 0 0 0 0 0 0 0 0 0 0 0 127 0" result="hardAlpha"/>
<feOffset dy="4"/>
<feGaussianBlur stdDeviation="2"/>
<feComposite in2="hardAlpha" operator="out"/>
<feColorMatrix type="matrix" values="0 0 0 0 0 0 0 0 0 0 0 0 0 0 0 0 0 0 0.25 0"/>
<feBlend mode="normal" in2="BackgroundImageFix" result="effect1_dropShadow_288_289"/>
<feBlend mode="normal" in="SourceGraphic" in2="effect1_dropShadow_288_289" result="shape"/>
</filter>
<clipPath id="clip0_288_289">
<rect width="440" height="440" fill="#1E59A5" transform="translate(4)"/>
</clipPath>
</defs>
</svg>
