<svg width="335" height="49" viewBox="0 0 335 49" fill="none" xmlns="http://www.w3.org/2000/svg">
<path opacity="0.6" d="M29.5886 11V39H26.6686V13.56H8.94859V39H6.02859V11H29.5886ZM47.0364 39.2C45.0097 39.2 43.1831 38.7467 41.5564 37.84C39.9297 36.9067 38.6497 35.6267 37.7164 34C36.7831 32.3733 36.3164 30.5333 36.3164 28.48C36.3164 26.4267 36.7831 24.5867 37.7164 22.96C38.6497 21.3333 39.9297 20.0667 41.5564 19.16C43.1831 18.2533 45.0097 17.8 47.0364 17.8C49.0631 17.8 50.8897 18.2533 52.5164 19.16C54.1431 20.0667 55.4097 21.3333 56.3164 22.96C57.2497 24.5867 57.7164 26.4267 57.7164 28.48C57.7164 30.5333 57.2497 32.3733 56.3164 34C55.4097 35.6267 54.1431 36.9067 52.5164 37.84C50.8897 38.7467 49.0631 39.2 47.0364 39.2ZM47.0364 36.68C48.5297 36.68 49.8631 36.3467 51.0364 35.68C52.2364 34.9867 53.1697 34.0133 53.8364 32.76C54.5031 31.5067 54.8364 30.08 54.8364 28.48C54.8364 26.88 54.5031 25.4533 53.8364 24.2C53.1697 22.9467 52.2364 21.9867 51.0364 21.32C49.8631 20.6267 48.5297 20.28 47.0364 20.28C45.5431 20.28 44.1964 20.6267 42.9964 21.32C41.8231 21.9867 40.8897 22.9467 40.1964 24.2C39.5297 25.4533 39.1964 26.88 39.1964 28.48C39.1964 30.08 39.5297 31.5067 40.1964 32.76C40.8897 34.0133 41.8231 34.9867 42.9964 35.68C44.1964 36.3467 45.5431 36.68 47.0364 36.68ZM71.4261 29.64H66.6261V39H63.7861V17.96H66.6261V27.2H71.4661L78.8661 17.96H81.9461L73.6661 28.16L82.5461 39H79.1861L71.4261 29.64ZM93.8777 17.8C96.6243 17.8 98.731 18.4933 100.198 19.88C101.664 21.24 102.398 23.2667 102.398 25.96V39H99.6777V35.72C99.0377 36.8133 98.091 37.6667 96.8377 38.28C95.611 38.8933 94.1443 39.2 92.4377 39.2C90.091 39.2 88.2243 38.64 86.8377 37.52C85.451 36.4 84.7577 34.92 84.7577 33.08C84.7577 31.2933 85.3977 29.8533 86.6777 28.76C87.9843 27.6667 90.051 27.12 92.8777 27.12H99.5577V25.84C99.5577 24.0267 99.051 22.6533 98.0377 21.72C97.0243 20.76 95.5443 20.28 93.5977 20.28C92.2643 20.28 90.9843 20.5067 89.7577 20.96C88.531 21.3867 87.4777 21.9867 86.5977 22.76L85.3177 20.64C86.3843 19.7333 87.6643 19.04 89.1577 18.56C90.651 18.0533 92.2243 17.8 93.8777 17.8ZM92.8777 36.96C94.4777 36.96 95.851 36.6 96.9977 35.88C98.1443 35.1333 98.9977 34.0667 99.5577 32.68V29.24H92.9577C89.3577 29.24 87.5577 30.4933 87.5577 33C87.5577 34.2267 88.0243 35.2 88.9577 35.92C89.891 36.6133 91.1977 36.96 92.8777 36.96ZM119.768 28.04C121.262 28.3867 122.408 28.9867 123.208 29.84C124.035 30.6933 124.448 31.7333 124.448 32.96C124.448 34.1867 124.022 35.28 123.168 36.24C122.342 37.2 121.208 37.9467 119.768 38.48C118.328 38.9867 116.742 39.24 115.008 39.24C113.488 39.24 111.995 39.0267 110.528 38.6C109.062 38.1467 107.782 37.4933 106.688 36.64L107.648 34.52C108.608 35.24 109.728 35.8 111.008 36.2C112.288 36.6 113.582 36.8 114.888 36.8C116.835 36.8 118.422 36.44 119.648 35.72C120.902 34.9733 121.528 33.9733 121.528 32.72C121.528 31.6 121.022 30.7333 120.008 30.12C118.995 29.48 117.608 29.16 115.848 29.16H112.248V27.08H115.688C117.262 27.08 118.528 26.7867 119.488 26.2C120.448 25.5867 120.928 24.7733 120.928 23.76C120.928 22.64 120.382 21.76 119.288 21.12C118.222 20.48 116.822 20.16 115.088 20.16C112.822 20.16 110.582 20.7333 108.368 21.88L107.568 19.68C110.075 18.3733 112.675 17.72 115.368 17.72C116.968 17.72 118.408 17.96 119.688 18.44C120.995 18.8933 122.008 19.5467 122.728 20.4C123.475 21.2533 123.848 22.24 123.848 23.36C123.848 24.4267 123.475 25.3733 122.728 26.2C122.008 27.0267 121.022 27.64 119.768 28.04ZM138.135 17.8C140.882 17.8 142.989 18.4933 144.455 19.88C145.922 21.24 146.655 23.2667 146.655 25.96V39H143.935V35.72C143.295 36.8133 142.349 37.6667 141.095 38.28C139.869 38.8933 138.402 39.2 136.695 39.2C134.349 39.2 132.482 38.64 131.095 37.52C129.709 36.4 129.015 34.92 129.015 33.08C129.015 31.2933 129.655 29.8533 130.935 28.76C132.242 27.6667 134.309 27.12 137.135 27.12H143.815V25.84C143.815 24.0267 143.309 22.6533 142.295 21.72C141.282 20.76 139.802 20.28 137.855 20.28C136.522 20.28 135.242 20.5067 134.015 20.96C132.789 21.3867 131.735 21.9867 130.855 22.76L129.575 20.64C130.642 19.7333 131.922 19.04 133.415 18.56C134.909 18.0533 136.482 17.8 138.135 17.8ZM137.135 36.96C138.735 36.96 140.109 36.6 141.255 35.88C142.402 35.1333 143.255 34.0667 143.815 32.68V29.24H137.215C133.615 29.24 131.815 30.4933 131.815 33C131.815 34.2267 132.282 35.2 133.215 35.92C134.149 36.6133 135.455 36.96 137.135 36.96ZM169.016 20.48H161.056V39H158.216V20.48H150.256V17.96H169.016V20.48ZM182.162 25.4C184.802 25.4267 186.802 26.0133 188.162 27.16C189.549 28.3067 190.242 29.96 190.242 32.12C190.242 34.36 189.495 36.08 188.002 37.28C186.535 38.48 184.402 39.0667 181.602 39.04L173.122 39V17.96H175.962V25.32L182.162 25.4ZM181.442 36.88C183.389 36.9067 184.855 36.52 185.842 35.72C186.855 34.8933 187.362 33.6933 187.362 32.12C187.362 30.5733 186.869 29.4267 185.882 28.68C184.895 27.9333 183.415 27.5467 181.442 27.52L175.962 27.44V36.8L181.442 36.88ZM224.53 29.36H206.93C207.09 31.5467 207.93 33.32 209.45 34.68C210.97 36.0133 212.89 36.68 215.21 36.68C216.517 36.68 217.717 36.4533 218.81 36C219.903 35.52 220.85 34.8267 221.65 33.92L223.25 35.76C222.317 36.88 221.143 37.7333 219.73 38.32C218.343 38.9067 216.81 39.2 215.13 39.2C212.97 39.2 211.05 38.7467 209.37 37.84C207.717 36.9067 206.423 35.6267 205.49 34C204.557 32.3733 204.09 30.5333 204.09 28.48C204.09 26.4267 204.53 24.5867 205.41 22.96C206.317 21.3333 207.543 20.0667 209.09 19.16C210.663 18.2533 212.423 17.8 214.37 17.8C216.317 17.8 218.063 18.2533 219.61 19.16C221.157 20.0667 222.37 21.3333 223.25 22.96C224.13 24.56 224.57 26.4 224.57 28.48L224.53 29.36ZM214.37 20.24C212.343 20.24 210.637 20.8933 209.25 22.2C207.89 23.48 207.117 25.16 206.93 27.24H221.85C221.663 25.16 220.877 23.48 219.49 22.2C218.13 20.8933 216.423 20.24 214.37 20.24ZM259.896 17.96V39H230.856V17.96H233.696V36.52H244.016V17.96H246.856V36.52H257.056V17.96H259.896ZM263.136 36.52V43.6H260.456V39H256.896V36.52H263.136ZM286.405 29.36H268.805C268.965 31.5467 269.805 33.32 271.325 34.68C272.845 36.0133 274.765 36.68 277.085 36.68C278.392 36.68 279.592 36.4533 280.685 36C281.778 35.52 282.725 34.8267 283.525 33.92L285.125 35.76C284.192 36.88 283.018 37.7333 281.605 38.32C280.218 38.9067 278.685 39.2 277.005 39.2C274.845 39.2 272.925 38.7467 271.245 37.84C269.592 36.9067 268.298 35.6267 267.365 34C266.432 32.3733 265.965 30.5333 265.965 28.48C265.965 26.4267 266.405 24.5867 267.285 22.96C268.192 21.3333 269.418 20.0667 270.965 19.16C272.538 18.2533 274.298 17.8 276.245 17.8C278.192 17.8 279.938 18.2533 281.485 19.16C283.032 20.0667 284.245 21.3333 285.125 22.96C286.005 24.56 286.445 26.4 286.445 28.48L286.405 29.36ZM276.245 20.24C274.218 20.24 272.512 20.8933 271.125 22.2C269.765 23.48 268.992 25.16 268.805 27.24H283.725C283.538 25.16 282.752 23.48 281.365 22.2C280.005 20.8933 278.298 20.24 276.245 20.24Z" fill="white"/>
<path opacity="0.6" d="M318.586 37.4142C319.367 38.1953 320.633 38.1953 321.414 37.4142L334.142 24.6863C334.923 23.9052 334.923 22.6389 334.142 21.8579C333.361 21.0768 332.095 21.0768 331.314 21.8579L320 33.1716L308.686 21.8579C307.905 21.0768 306.639 21.0768 305.858 21.8579C305.077 22.6389 305.077 23.9052 305.858 24.6863L318.586 37.4142ZM318 32L318 36L322 36L322 32L318 32Z" fill="white"/>
</svg>
