<svg width="151" height="351" viewBox="0 0 151 351" fill="none" xmlns="http://www.w3.org/2000/svg">
<g opacity="0.55">
<ellipse cx="39.9621" cy="153.693" rx="3.82893" ry="3.5632" transform="rotate(-180 39.9621 153.693)" fill="white" fill-opacity="0.5"/>
<ellipse cx="39.9621" cy="89.0801" rx="3.82893" ry="3.5632" transform="rotate(-180 39.9621 89.0801)" fill="white" fill-opacity="0.5"/>
<ellipse cx="39.9621" cy="132.076" rx="3.82893" ry="3.80075" transform="rotate(-180 39.9621 132.076)" fill="white" fill-opacity="0.5"/>
<ellipse cx="39.9621" cy="67.7008" rx="3.82893" ry="3.5632" transform="rotate(-180 39.9621 67.7008)" fill="white" fill-opacity="0.5"/>
<ellipse cx="39.9621" cy="175.072" rx="3.82893" ry="3.5632" transform="rotate(-180 39.9621 175.072)" fill="white" fill-opacity="0.5"/>
<ellipse cx="39.9621" cy="110.459" rx="3.82893" ry="3.5632" transform="rotate(-180 39.9621 110.459)" fill="white" fill-opacity="0.5"/>
<ellipse cx="39.9621" cy="46.3216" rx="3.82893" ry="3.5632" transform="rotate(-180 39.9621 46.3216)" fill="white" fill-opacity="0.5"/>
</g>
<g opacity="0.55">
<ellipse cx="4.22575" cy="175.072" rx="3.82893" ry="3.5632" transform="rotate(-180 4.22575 175.072)" fill="white" fill-opacity="0.5"/>
<ellipse cx="4.22575" cy="110.934" rx="3.82893" ry="3.5632" transform="rotate(-180 4.22575 110.934)" fill="white" fill-opacity="0.5"/>
<ellipse cx="4.22575" cy="46.3216" rx="3.82893" ry="3.5632" transform="rotate(-180 4.22575 46.3216)" fill="white" fill-opacity="0.5"/>
<ellipse cx="4.22575" cy="153.693" rx="3.82893" ry="3.5632" transform="rotate(-180 4.22575 153.693)" fill="white" fill-opacity="0.5"/>
<ellipse cx="4.22575" cy="89.3177" rx="3.82893" ry="3.80075" transform="rotate(-180 4.22575 89.3177)" fill="white" fill-opacity="0.5"/>
<ellipse cx="4.22575" cy="24.9425" rx="3.82893" ry="3.5632" transform="rotate(-180 4.22575 24.9425)" fill="white" fill-opacity="0.5"/>
<ellipse cx="4.22575" cy="132.314" rx="3.82893" ry="3.5632" transform="rotate(-180 4.22575 132.314)" fill="white" fill-opacity="0.5"/>
<ellipse cx="4.22575" cy="67.7008" rx="3.82893" ry="3.5632" transform="rotate(-180 4.22575 67.7008)" fill="white" fill-opacity="0.5"/>
<ellipse cx="4.22575" cy="3.56326" rx="3.82893" ry="3.5632" transform="rotate(-180 4.22575 3.56326)" fill="white" fill-opacity="0.5"/>
</g>
<g opacity="0.55">
<ellipse cx="75.7004" cy="131.839" rx="3.82893" ry="3.5632" transform="rotate(-180 75.7004 131.839)" fill="white" fill-opacity="0.5"/>
<ellipse cx="75.7004" cy="174.835" rx="3.82893" ry="3.80075" transform="rotate(-180 75.7004 174.835)" fill="white" fill-opacity="0.5"/>
<ellipse cx="75.7004" cy="110.459" rx="3.82893" ry="3.5632" transform="rotate(-180 75.7004 110.459)" fill="white" fill-opacity="0.5"/>
<ellipse cx="75.7004" cy="153.218" rx="3.82893" ry="3.5632" transform="rotate(-180 75.7004 153.218)" fill="white" fill-opacity="0.5"/>
<ellipse cx="75.7004" cy="89.0801" rx="3.82893" ry="3.5632" transform="rotate(-180 75.7004 89.0801)" fill="white" fill-opacity="0.5"/>
</g>
<g opacity="0.55">
<ellipse cx="111.433" cy="175.072" rx="3.82893" ry="3.5632" transform="rotate(-180 111.433 175.072)" fill="white" fill-opacity="0.5"/>
<ellipse cx="111.433" cy="153.693" rx="3.82893" ry="3.5632" transform="rotate(-180 111.433 153.693)" fill="white" fill-opacity="0.5"/>
<ellipse cx="111.433" cy="132.314" rx="3.82893" ry="3.5632" transform="rotate(-180 111.433 132.314)" fill="white" fill-opacity="0.5"/>
</g>
<g opacity="0.55">
<ellipse cx="147.171" cy="175.072" rx="3.82893" ry="3.5632" transform="rotate(-180 147.171 175.072)" fill="white" fill-opacity="0.5"/>
</g>
<g opacity="0.55">
<ellipse cx="3.83912" cy="3.57268" rx="3.83912" ry="3.57268" transform="matrix(-1 -1.74846e-07 -1.74846e-07 1 43.5137 192.47)" fill="white" fill-opacity="0.5"/>
<ellipse cx="3.83912" cy="3.57268" rx="3.83912" ry="3.57268" transform="matrix(-1 -1.74846e-07 -1.74846e-07 1 43.5137 257.254)" fill="white" fill-opacity="0.5"/>
<ellipse cx="3.83912" cy="3.81086" rx="3.83912" ry="3.81086" transform="matrix(-1 -1.74846e-07 -1.74846e-07 1 43.5137 213.906)" fill="white" fill-opacity="0.5"/>
<ellipse cx="3.83912" cy="3.57268" rx="3.83912" ry="3.57268" transform="matrix(-1 -1.74846e-07 -1.74846e-07 1 43.5137 278.69)" fill="white" fill-opacity="0.5"/>
<ellipse cx="3.83912" cy="3.57268" rx="3.83912" ry="3.57268" transform="matrix(-1 -1.74846e-07 -1.74846e-07 1 43.5137 235.818)" fill="white" fill-opacity="0.5"/>
<ellipse cx="3.83912" cy="3.57268" rx="3.83912" ry="3.57268" transform="matrix(-1 -1.74846e-07 -1.74846e-07 1 43.5137 300.126)" fill="white" fill-opacity="0.5"/>
</g>
<g opacity="0.55">
<ellipse cx="3.83912" cy="3.57268" rx="3.83912" ry="3.57268" transform="matrix(-1 -1.74846e-07 -1.74846e-07 1 7.67969 235.342)" fill="white" fill-opacity="0.5"/>
<ellipse cx="3.83912" cy="3.57268" rx="3.83912" ry="3.57268" transform="matrix(-1 -1.74846e-07 -1.74846e-07 1 7.67969 300.126)" fill="white" fill-opacity="0.5"/>
<ellipse cx="3.83912" cy="3.57268" rx="3.83912" ry="3.57268" transform="matrix(-1 -1.74846e-07 -1.74846e-07 1 7.67969 192.47)" fill="white" fill-opacity="0.5"/>
<ellipse cx="3.83912" cy="3.81086" rx="3.83912" ry="3.81086" transform="matrix(-1 -1.74846e-07 -1.74846e-07 1 7.67969 256.778)" fill="white" fill-opacity="0.5"/>
<ellipse cx="3.83912" cy="3.57268" rx="3.83912" ry="3.57268" transform="matrix(-1 -1.74846e-07 -1.74846e-07 1 7.67969 321.562)" fill="white" fill-opacity="0.5"/>
<ellipse cx="3.83912" cy="3.57268" rx="3.83912" ry="3.57268" transform="matrix(-1 -1.74846e-07 -1.74846e-07 1 7.67969 213.906)" fill="white" fill-opacity="0.5"/>
<ellipse cx="3.83912" cy="3.57268" rx="3.83912" ry="3.57268" transform="matrix(-1 -1.74846e-07 -1.74846e-07 1 7.67969 278.69)" fill="white" fill-opacity="0.5"/>
<ellipse cx="3.83912" cy="3.57268" rx="3.83912" ry="3.57268" transform="matrix(-1 -1.74846e-07 -1.74846e-07 1 7.67969 342.999)" fill="white" fill-opacity="0.5"/>
</g>
<g opacity="0.55">
<ellipse cx="3.83912" cy="3.57268" rx="3.83912" ry="3.57268" transform="matrix(-1 -1.74846e-07 -1.74846e-07 1 79.3438 214.382)" fill="white" fill-opacity="0.5"/>
<ellipse cx="3.83912" cy="3.57268" rx="3.83912" ry="3.57268" transform="matrix(-1 -1.74846e-07 -1.74846e-07 1 79.3438 235.818)" fill="white" fill-opacity="0.5"/>
<ellipse cx="3.83912" cy="3.57268" rx="3.83912" ry="3.57268" transform="matrix(-1 -1.74846e-07 -1.74846e-07 1 79.3438 192.946)" fill="white" fill-opacity="0.5"/>
<ellipse cx="3.83912" cy="3.57268" rx="3.83912" ry="3.57268" transform="matrix(-1 -1.74846e-07 -1.74846e-07 1 79.3438 257.254)" fill="white" fill-opacity="0.5"/>
</g>
<g opacity="0.55">
<ellipse cx="3.83912" cy="3.57268" rx="3.83912" ry="3.57268" transform="matrix(-1 -1.74846e-07 -1.74846e-07 1 115.174 192.47)" fill="white" fill-opacity="0.5"/>
<ellipse cx="3.83912" cy="3.57268" rx="3.83912" ry="3.57268" transform="matrix(-1 -1.74846e-07 -1.74846e-07 1 115.174 213.906)" fill="white" fill-opacity="0.5"/>
</g>
</svg>
