<svg width="151" height="351" viewBox="0 0 151 351" fill="none" xmlns="http://www.w3.org/2000/svg">
<g opacity="0.55">
<ellipse cx="111.038" cy="196.451" rx="3.82893" ry="3.5632" fill="white" fill-opacity="0.5"/>
<ellipse cx="111.038" cy="261.064" rx="3.82893" ry="3.5632" fill="white" fill-opacity="0.5"/>
<ellipse cx="111.038" cy="218.068" rx="3.82893" ry="3.80075" fill="white" fill-opacity="0.5"/>
<ellipse cx="111.038" cy="282.443" rx="3.82893" ry="3.5632" fill="white" fill-opacity="0.5"/>
<ellipse cx="111.038" cy="175.072" rx="3.82893" ry="3.5632" fill="white" fill-opacity="0.5"/>
<ellipse cx="111.038" cy="239.685" rx="3.82893" ry="3.5632" fill="white" fill-opacity="0.5"/>
<ellipse cx="111.038" cy="303.822" rx="3.82893" ry="3.5632" fill="white" fill-opacity="0.5"/>
</g>
<g opacity="0.55">
<ellipse cx="146.774" cy="175.072" rx="3.82893" ry="3.5632" fill="white" fill-opacity="0.5"/>
<ellipse cx="146.774" cy="239.21" rx="3.82893" ry="3.5632" fill="white" fill-opacity="0.5"/>
<ellipse cx="146.774" cy="303.822" rx="3.82893" ry="3.5632" fill="white" fill-opacity="0.5"/>
<ellipse cx="146.774" cy="196.451" rx="3.82893" ry="3.5632" fill="white" fill-opacity="0.5"/>
<ellipse cx="146.774" cy="260.826" rx="3.82893" ry="3.80075" fill="white" fill-opacity="0.5"/>
<ellipse cx="146.774" cy="325.202" rx="3.82893" ry="3.5632" fill="white" fill-opacity="0.5"/>
<ellipse cx="146.774" cy="217.83" rx="3.82893" ry="3.5632" fill="white" fill-opacity="0.5"/>
<ellipse cx="146.774" cy="282.443" rx="3.82893" ry="3.5632" fill="white" fill-opacity="0.5"/>
<ellipse cx="146.774" cy="346.581" rx="3.82893" ry="3.5632" fill="white" fill-opacity="0.5"/>
</g>
<g opacity="0.55">
<ellipse cx="75.2996" cy="218.305" rx="3.82893" ry="3.5632" fill="white" fill-opacity="0.5"/>
<ellipse cx="75.2996" cy="175.31" rx="3.82893" ry="3.80075" fill="white" fill-opacity="0.5"/>
<ellipse cx="75.2996" cy="239.685" rx="3.82893" ry="3.5632" fill="white" fill-opacity="0.5"/>
<ellipse cx="75.2996" cy="196.926" rx="3.82893" ry="3.5632" fill="white" fill-opacity="0.5"/>
<ellipse cx="75.2996" cy="261.064" rx="3.82893" ry="3.5632" fill="white" fill-opacity="0.5"/>
</g>
<g opacity="0.55">
<ellipse cx="39.5653" cy="175.072" rx="3.82893" ry="3.5632" fill="white" fill-opacity="0.5"/>
<ellipse cx="39.5653" cy="196.452" rx="3.82893" ry="3.5632" fill="white" fill-opacity="0.5"/>
<ellipse cx="39.5653" cy="217.831" rx="3.82893" ry="3.5632" fill="white" fill-opacity="0.5"/>
</g>
<g opacity="0.55">
<ellipse cx="3.82893" cy="175.072" rx="3.82893" ry="3.5632" fill="white" fill-opacity="0.5"/>
</g>
<g opacity="0.55">
<ellipse cx="3.83912" cy="3.57268" rx="3.83912" ry="3.57268" transform="matrix(1 8.74228e-08 8.74228e-08 -1 107.49 157.674)" fill="white" fill-opacity="0.5"/>
<ellipse cx="3.83912" cy="3.57268" rx="3.83912" ry="3.57268" transform="matrix(1 8.74228e-08 8.74228e-08 -1 107.49 92.8898)" fill="white" fill-opacity="0.5"/>
<ellipse cx="3.83912" cy="3.81086" rx="3.83912" ry="3.81086" transform="matrix(1 8.74228e-08 8.74228e-08 -1 107.49 136.238)" fill="white" fill-opacity="0.5"/>
<ellipse cx="3.83912" cy="3.57268" rx="3.83912" ry="3.57268" transform="matrix(1 8.74228e-08 8.74228e-08 -1 107.49 71.4537)" fill="white" fill-opacity="0.5"/>
<ellipse cx="3.83912" cy="3.57268" rx="3.83912" ry="3.57268" transform="matrix(1 8.74228e-08 8.74228e-08 -1 107.49 114.326)" fill="white" fill-opacity="0.5"/>
<ellipse cx="3.83912" cy="3.57268" rx="3.83912" ry="3.57268" transform="matrix(1 8.74228e-08 8.74228e-08 -1 107.49 50.0177)" fill="white" fill-opacity="0.5"/>
</g>
<g opacity="0.55">
<ellipse cx="3.83912" cy="3.57268" rx="3.83912" ry="3.57268" transform="matrix(1 8.74228e-08 8.74228e-08 -1 143.322 114.802)" fill="white" fill-opacity="0.5"/>
<ellipse cx="3.83912" cy="3.57268" rx="3.83912" ry="3.57268" transform="matrix(1 8.74228e-08 8.74228e-08 -1 143.322 50.0177)" fill="white" fill-opacity="0.5"/>
<ellipse cx="3.83912" cy="3.57268" rx="3.83912" ry="3.57268" transform="matrix(1 8.74228e-08 8.74228e-08 -1 143.322 157.674)" fill="white" fill-opacity="0.5"/>
<ellipse cx="3.83912" cy="3.81086" rx="3.83912" ry="3.81086" transform="matrix(1 8.74228e-08 8.74228e-08 -1 143.322 93.3661)" fill="white" fill-opacity="0.5"/>
<ellipse cx="3.83912" cy="3.57268" rx="3.83912" ry="3.57268" transform="matrix(1 8.74228e-08 8.74228e-08 -1 143.322 28.5815)" fill="white" fill-opacity="0.5"/>
<ellipse cx="3.83912" cy="3.57268" rx="3.83912" ry="3.57268" transform="matrix(1 8.74228e-08 8.74228e-08 -1 143.322 136.238)" fill="white" fill-opacity="0.5"/>
<ellipse cx="3.83912" cy="3.57268" rx="3.83912" ry="3.57268" transform="matrix(1 8.74228e-08 8.74228e-08 -1 143.322 71.4537)" fill="white" fill-opacity="0.5"/>
<ellipse cx="3.83912" cy="3.57268" rx="3.83912" ry="3.57268" transform="matrix(1 8.74228e-08 8.74228e-08 -1 143.322 7.14551)" fill="white" fill-opacity="0.5"/>
</g>
<g opacity="0.55">
<ellipse cx="3.83912" cy="3.57268" rx="3.83912" ry="3.57268" transform="matrix(1 8.74228e-08 8.74228e-08 -1 71.6602 135.762)" fill="white" fill-opacity="0.5"/>
<ellipse cx="3.83912" cy="3.57268" rx="3.83912" ry="3.57268" transform="matrix(1 8.74228e-08 8.74228e-08 -1 71.6602 114.326)" fill="white" fill-opacity="0.5"/>
<ellipse cx="3.83912" cy="3.57268" rx="3.83912" ry="3.57268" transform="matrix(1 8.74228e-08 8.74228e-08 -1 71.6602 157.198)" fill="white" fill-opacity="0.5"/>
<ellipse cx="3.83912" cy="3.57268" rx="3.83912" ry="3.57268" transform="matrix(1 8.74228e-08 8.74228e-08 -1 71.6602 92.8898)" fill="white" fill-opacity="0.5"/>
</g>
<g opacity="0.55">
<ellipse cx="3.83912" cy="3.57268" rx="3.83912" ry="3.57268" transform="matrix(1 8.74228e-08 8.74228e-08 -1 35.8281 157.674)" fill="white" fill-opacity="0.5"/>
<ellipse cx="3.83912" cy="3.57268" rx="3.83912" ry="3.57268" transform="matrix(1 8.74228e-08 8.74228e-08 -1 35.8281 136.238)" fill="white" fill-opacity="0.5"/>
</g>
</svg>
